<svg width="162" height="36" viewBox="0 0 162 36" fill="none" xmlns="http://www.w3.org/2000/svg">
<g clip-path="url(#clip0_412_2)">
<path d="M30.86 20.94C31.5179 21.0209 32.1516 21.2389 32.72 21.58H32.77C33.3605 18.7883 33.1491 15.8865 32.16 13.21C32.123 13.0768 32.0587 12.9527 31.9713 12.8456C31.8839 12.7385 31.7752 12.6507 31.6522 12.5877C31.5291 12.5247 31.3943 12.488 31.2563 12.4797C31.1183 12.4714 30.9801 12.4919 30.8504 12.5397C30.7207 12.5876 30.6023 12.6618 30.5028 12.7577C30.4032 12.8536 30.3246 12.9692 30.272 13.097C30.2193 13.2248 30.1937 13.3622 30.1968 13.5004C30.1999 13.6386 30.2317 13.7747 30.29 13.9C31.1165 16.1512 31.3135 18.5851 30.86 20.94ZM26.33 28.58C24.5875 30.0337 22.4948 31.0059 20.26 31.4C20.1287 31.4111 20.0008 31.4481 19.8838 31.5086C19.7667 31.5692 19.6628 31.6522 19.5778 31.753C19.4928 31.8537 19.4285 31.9702 19.3886 32.0958C19.3487 32.2214 19.3338 32.3537 19.345 32.485C19.3562 32.6163 19.3931 32.7441 19.4537 32.8612C19.5142 32.9783 19.5973 33.0822 19.698 33.1672C19.7988 33.2522 19.9153 33.3164 20.0409 33.3564C20.1665 33.3963 20.2987 33.4111 20.43 33.4H20.61C23.2736 32.9301 25.763 31.7562 27.82 30V29.93C27.2318 29.5927 26.7235 29.1322 26.33 28.58ZM15.62 31.34C14.1075 31.0561 12.6558 30.5113 11.33 29.73C10.7631 29.3959 10.2186 29.0251 9.70001 28.62C9.31873 29.18 8.82064 29.6508 8.24001 30C8.88936 30.5478 9.58158 31.0427 10.31 31.48C11.8374 32.3797 13.5086 33.0089 15.25 33.34H15.44C15.7052 33.3639 15.9691 33.2814 16.1735 33.1107C16.3779 32.9401 16.5061 32.6952 16.53 32.43C16.5539 32.1648 16.4714 31.9009 16.3008 31.6965C16.1301 31.4921 15.8852 31.3639 15.62 31.34ZM4.56001 21.15C4.76001 21.15 4.96001 21.12 5.16001 21.06C4.68331 18.702 4.87024 16.258 5.70001 14C5.79151 13.7507 5.78022 13.4752 5.66864 13.2343C5.55706 12.9933 5.35431 12.8065 5.10501 12.715C4.8557 12.6235 4.58026 12.6348 4.33928 12.7464C4.09829 12.8579 3.91151 13.0607 3.82001 13.31C2.8295 16.0083 2.63512 18.9344 3.26001 21.74C3.66129 21.4792 4.09953 21.2803 4.56001 21.15Z" fill="url(#paint0_linear_412_2)"/>
<path d="M31.9 23C31.5428 22.7727 31.1442 22.6186 30.7271 22.5465C30.3099 22.4744 29.8827 22.4858 29.47 22.58C28.9477 22.7192 28.4672 22.9835 28.07 23.35L24.2 21.11C24.8095 19.6042 24.8657 17.9311 24.3585 16.3878C23.8514 14.8445 22.8138 13.5308 21.43 12.68L21.32 12.61C20.5723 12.1881 19.7509 11.9132 18.9 11.8V7.99998C19.6964 7.76063 20.3698 7.22335 20.78 6.49998C21.2217 5.75214 21.3508 4.86029 21.1393 4.01787C20.9278 3.17545 20.3926 2.4504 19.65 1.99998C19.2882 1.78831 18.8878 1.65098 18.4722 1.59603C18.0567 1.54108 17.6343 1.56962 17.23 1.67998C16.813 1.78627 16.4215 1.97453 16.0781 2.23379C15.7347 2.49304 15.4464 2.8181 15.23 3.18998C14.8007 3.93421 14.6785 4.81652 14.8896 5.64938C15.1006 6.48223 15.6281 7.19995 16.36 7.64998C16.5895 7.79991 16.8385 7.91767 17.1 7.99998V11.8C16.0926 11.9375 15.1304 12.3048 14.2877 12.8735C13.445 13.4423 12.7443 14.1972 12.24 15.08C11.7181 15.9822 11.409 16.9917 11.3362 18.0314C11.2634 19.0712 11.4289 20.1138 11.82 21.08L7.81997 23.37C7.67969 23.2353 7.52924 23.1116 7.36997 23C7.00379 22.7917 6.60007 22.6577 6.18199 22.6058C5.76391 22.5538 5.33969 22.585 4.93367 22.6974C4.52765 22.8098 4.14783 23.0013 3.81599 23.2609C3.48416 23.5204 3.20685 23.843 2.99997 24.21C2.56799 24.9506 2.44124 25.8303 2.64656 26.6628C2.85187 27.4953 3.37314 28.2151 4.09997 28.67C4.59815 28.9699 5.16846 29.1289 5.74997 29.13C6.01328 29.1318 6.27564 29.0982 6.52997 29.03C7.36136 28.8155 8.0741 28.2808 8.51254 27.5426C8.95097 26.8043 9.07947 25.9226 8.86997 25.09V24.92L12.75 22.68C13.27 23.3608 13.9106 23.9404 14.64 24.39C16.038 25.2715 17.7197 25.5864 19.342 25.2705C20.9642 24.9546 22.4049 24.0317 23.37 22.69L27.2 24.9C27.0194 25.582 27.0629 26.304 27.324 26.9594C27.5851 27.6148 28.0499 28.1689 28.65 28.54C29.3768 28.9664 30.2432 29.087 31.0588 28.8751C31.8744 28.6632 32.5726 28.1363 33 27.41C33.4167 26.674 33.5349 25.8061 33.3302 24.9854C33.1255 24.1648 32.6135 23.4541 31.9 23ZM8.04997 9.99998C9.48261 8.30762 11.3243 7.00982 13.4 6.22998C13.199 5.55948 13.1411 4.85427 13.23 4.15998C10.6297 5.02935 8.31406 6.58808 6.52997 8.66998C6.3536 8.87154 6.26453 9.13491 6.28234 9.40215C6.30016 9.66939 6.42341 9.91861 6.62497 10.095C6.82653 10.2713 7.08991 10.3604 7.35715 10.3426C7.62438 10.3248 7.8736 10.2015 8.04997 9.99998Z" fill="url(#paint1_linear_412_2)"/>
<path d="M24.67 7.23004C25.901 7.96866 27.0023 8.90445 27.93 10C28.0153 10.0998 28.1195 10.1819 28.2366 10.2414C28.3536 10.3009 28.4813 10.3368 28.6122 10.3471C28.7431 10.3573 28.8748 10.3416 28.9997 10.3009C29.1245 10.2603 29.2402 10.1954 29.34 10.11C29.4398 10.0247 29.5218 9.9205 29.5813 9.80345C29.6409 9.68639 29.6768 9.55876 29.687 9.42783C29.6972 9.2969 29.6815 9.16523 29.6409 9.04036C29.6002 8.91549 29.5353 8.79985 29.45 8.70004C28.382 7.43301 27.1115 6.3517 25.69 5.50004C24.7577 4.95797 23.7726 4.51234 22.75 4.17004C22.8504 4.85945 22.7992 5.56246 22.6 6.23004C23.316 6.50648 24.0083 6.84092 24.67 7.23004Z" fill="url(#paint2_linear_412_2)"/>
</g>
<g filter="url(#filter0_di_412_2)">
<path d="M46.026 17V4.4H49.518L54.558 12.626H52.722L57.618 4.4H61.11L61.146 17H57.276L57.24 10.232H57.852L54.504 15.866H52.632L49.14 10.232H49.896V17H46.026ZM68.2758 17.18C67.1598 17.18 66.1698 16.964 65.3058 16.532C64.4538 16.088 63.7818 15.482 63.2898 14.714C62.7978 13.946 62.5518 13.064 62.5518 12.068C62.5518 11.072 62.7978 10.19 63.2898 9.422C63.7818 8.654 64.4538 8.054 65.3058 7.622C66.1698 7.19 67.1598 6.974 68.2758 6.974C69.3918 6.974 70.3818 7.19 71.2458 7.622C72.1098 8.054 72.7818 8.654 73.2618 9.422C73.7538 10.19 73.9998 11.072 73.9998 12.068C73.9998 13.064 73.7538 13.946 73.2618 14.714C72.7818 15.482 72.1098 16.088 71.2458 16.532C70.3818 16.964 69.3918 17.18 68.2758 17.18ZM68.2758 14.012C68.5758 14.012 68.8458 13.94 69.0858 13.796C69.3258 13.652 69.5178 13.436 69.6618 13.148C69.8058 12.848 69.8778 12.488 69.8778 12.068C69.8778 11.636 69.8058 11.282 69.6618 11.006C69.5178 10.718 69.3258 10.502 69.0858 10.358C68.8458 10.214 68.5758 10.142 68.2758 10.142C67.9758 10.142 67.7058 10.214 67.4658 10.358C67.2258 10.502 67.0338 10.718 66.8898 11.006C66.7458 11.282 66.6738 11.636 66.6738 12.068C66.6738 12.488 66.7458 12.848 66.8898 13.148C67.0338 13.436 67.2258 13.652 67.4658 13.796C67.7058 13.94 67.9758 14.012 68.2758 14.012ZM79.125 17.18C78.285 17.18 77.457 17.09 76.641 16.91C75.825 16.73 75.165 16.496 74.661 16.208L75.777 13.526C76.245 13.802 76.785 14.018 77.397 14.174C78.021 14.33 78.627 14.408 79.215 14.408C79.707 14.408 80.037 14.366 80.205 14.282C80.385 14.198 80.475 14.084 80.475 13.94C80.475 13.796 80.373 13.694 80.169 13.634C79.965 13.562 79.695 13.508 79.359 13.472C79.023 13.436 78.651 13.394 78.243 13.346C77.847 13.286 77.445 13.202 77.037 13.094C76.629 12.986 76.257 12.824 75.921 12.608C75.585 12.392 75.315 12.104 75.111 11.744C74.907 11.372 74.805 10.904 74.805 10.34C74.805 9.716 74.991 9.152 75.363 8.648C75.747 8.144 76.311 7.742 77.055 7.442C77.811 7.13 78.741 6.974 79.845 6.974C80.565 6.974 81.285 7.04 82.005 7.172C82.725 7.304 83.343 7.508 83.859 7.784L82.743 10.466C82.239 10.19 81.741 10.004 81.249 9.908C80.769 9.8 80.319 9.746 79.899 9.746C79.383 9.746 79.029 9.794 78.837 9.89C78.657 9.986 78.567 10.094 78.567 10.214C78.567 10.358 78.669 10.466 78.873 10.538C79.077 10.61 79.347 10.664 79.683 10.7C80.019 10.736 80.385 10.784 80.781 10.844C81.189 10.892 81.591 10.976 81.987 11.096C82.395 11.204 82.767 11.366 83.103 11.582C83.439 11.798 83.709 12.092 83.913 12.464C84.117 12.824 84.219 13.286 84.219 13.85C84.219 14.438 84.033 14.99 83.661 15.506C83.289 16.01 82.725 16.418 81.969 16.73C81.213 17.03 80.265 17.18 79.125 17.18ZM90.7428 17.18C89.6148 17.18 88.6128 16.964 87.7368 16.532C86.8608 16.1 86.1708 15.5 85.6668 14.732C85.1748 13.952 84.9288 13.064 84.9288 12.068C84.9288 11.072 85.1748 10.19 85.6668 9.422C86.1708 8.654 86.8608 8.054 87.7368 7.622C88.6128 7.19 89.6148 6.974 90.7428 6.974C91.9428 6.974 92.9688 7.232 93.8208 7.748C94.6728 8.264 95.2608 8.978 95.5848 9.89L92.4348 11.438C92.2308 10.982 91.9788 10.652 91.6788 10.448C91.3908 10.244 91.0728 10.142 90.7248 10.142C90.4248 10.142 90.1428 10.214 89.8788 10.358C89.6268 10.502 89.4228 10.718 89.2668 11.006C89.1228 11.282 89.0508 11.636 89.0508 12.068C89.0508 12.5 89.1228 12.86 89.2668 13.148C89.4228 13.436 89.6268 13.652 89.8788 13.796C90.1428 13.94 90.4248 14.012 90.7248 14.012C91.0728 14.012 91.3908 13.91 91.6788 13.706C91.9788 13.502 92.2308 13.172 92.4348 12.716L95.5848 14.264C95.2608 15.176 94.6728 15.89 93.8208 16.406C92.9688 16.922 91.9428 17.18 90.7428 17.18ZM101.639 17.18C100.523 17.18 99.5331 16.964 98.6691 16.532C97.8171 16.088 97.1451 15.482 96.6531 14.714C96.1611 13.946 95.9151 13.064 95.9151 12.068C95.9151 11.072 96.1611 10.19 96.6531 9.422C97.1451 8.654 97.8171 8.054 98.6691 7.622C99.5331 7.19 100.523 6.974 101.639 6.974C102.755 6.974 103.745 7.19 104.609 7.622C105.473 8.054 106.145 8.654 106.625 9.422C107.117 10.19 107.363 11.072 107.363 12.068C107.363 13.064 107.117 13.946 106.625 14.714C106.145 15.482 105.473 16.088 104.609 16.532C103.745 16.964 102.755 17.18 101.639 17.18ZM101.639 14.012C101.939 14.012 102.209 13.94 102.449 13.796C102.689 13.652 102.881 13.436 103.025 13.148C103.169 12.848 103.241 12.488 103.241 12.068C103.241 11.636 103.169 11.282 103.025 11.006C102.881 10.718 102.689 10.502 102.449 10.358C102.209 10.214 101.939 10.142 101.639 10.142C101.339 10.142 101.069 10.214 100.829 10.358C100.589 10.502 100.397 10.718 100.253 11.006C100.109 11.282 100.037 11.636 100.037 12.068C100.037 12.488 100.109 12.848 100.253 13.148C100.397 13.436 100.589 13.652 100.829 13.796C101.069 13.94 101.339 14.012 101.639 14.012ZM110.785 17L107.365 7.154H111.217L113.809 15.146H111.955L114.673 7.154H118.129L120.721 15.146H118.921L121.603 7.154H125.167L121.747 17H117.787L115.717 10.664H116.905L114.745 17H110.785Z" fill="url(#paint3_linear_412_2)"/>
<path d="M46.368 32V23.6H49.512C50.224 23.6 50.836 23.716 51.348 23.948C51.86 24.172 52.252 24.5 52.524 24.932C52.804 25.356 52.944 25.872 52.944 26.48C52.944 27.072 52.804 27.584 52.524 28.016C52.252 28.44 51.86 28.768 51.348 29C50.836 29.232 50.224 29.348 49.512 29.348H46.86L47.256 28.928V32H46.368ZM47.256 29L46.86 28.568H49.488C50.328 28.568 50.964 28.388 51.396 28.028C51.836 27.66 52.056 27.144 52.056 26.48C52.056 25.808 51.836 25.288 51.396 24.92C50.964 24.552 50.328 24.368 49.488 24.368H46.86L47.256 23.948V29ZM57.6517 32V25.7H58.4678V27.416L58.3838 27.116C58.5598 26.636 58.8558 26.272 59.2718 26.024C59.6878 25.768 60.2038 25.64 60.8197 25.64V26.468C60.7878 26.468 60.7558 26.468 60.7238 26.468C60.6918 26.46 60.6597 26.456 60.6277 26.456C59.9637 26.456 59.4437 26.66 59.0677 27.068C58.6917 27.468 58.5037 28.04 58.5037 28.784V32H57.6517ZM68.0038 32.06C67.3958 32.06 66.8478 31.924 66.3598 31.652C65.8798 31.372 65.4998 30.992 65.2198 30.512C64.9398 30.024 64.7998 29.468 64.7998 28.844C64.7998 28.212 64.9398 27.656 65.2198 27.176C65.4998 26.696 65.8798 26.32 66.3598 26.048C66.8398 25.776 67.3878 25.64 68.0038 25.64C68.6278 25.64 69.1798 25.776 69.6598 26.048C70.1478 26.32 70.5278 26.696 70.7998 27.176C71.0798 27.656 71.2198 28.212 71.2198 28.844C71.2198 29.468 71.0798 30.024 70.7998 30.512C70.5278 30.992 70.1478 31.372 69.6598 31.652C69.1718 31.924 68.6198 32.06 68.0038 32.06ZM68.0038 31.304C68.4598 31.304 68.8638 31.204 69.2158 31.004C69.5678 30.796 69.8438 30.508 70.0438 30.14C70.2518 29.764 70.3558 29.332 70.3558 28.844C70.3558 28.348 70.2518 27.916 70.0438 27.548C69.8438 27.18 69.5678 26.896 69.2158 26.696C68.8638 26.488 68.4638 26.384 68.0158 26.384C67.5678 26.384 67.1678 26.488 66.8158 26.696C66.4638 26.896 66.1838 27.18 65.9758 27.548C65.7678 27.916 65.6638 28.348 65.6638 28.844C65.6638 29.332 65.7678 29.764 65.9758 30.14C66.1838 30.508 66.4638 30.796 66.8158 31.004C67.1678 31.204 67.5638 31.304 68.0038 31.304ZM77.5235 32L74.7275 25.7H75.6155L78.1835 31.544H77.7635L80.3675 25.7H81.2075L78.3995 32H77.5235ZM85.5274 32V25.7H86.3794V32H85.5274ZM85.9594 24.308C85.7834 24.308 85.6354 24.248 85.5154 24.128C85.3954 24.008 85.3354 23.864 85.3354 23.696C85.3354 23.528 85.3954 23.388 85.5154 23.276C85.6354 23.156 85.7834 23.096 85.9594 23.096C86.1354 23.096 86.2834 23.152 86.4034 23.264C86.5234 23.376 86.5834 23.516 86.5834 23.684C86.5834 23.86 86.5234 24.008 86.4034 24.128C86.2914 24.248 86.1434 24.308 85.9594 24.308ZM94.378 32.06C93.778 32.06 93.238 31.924 92.758 31.652C92.286 31.38 91.914 31.004 91.642 30.524C91.37 30.036 91.234 29.476 91.234 28.844C91.234 28.204 91.37 27.644 91.642 27.164C91.914 26.684 92.286 26.312 92.758 26.048C93.238 25.776 93.778 25.64 94.378 25.64C94.93 25.64 95.422 25.764 95.854 26.012C96.294 26.26 96.642 26.624 96.898 27.104C97.162 27.576 97.294 28.156 97.294 28.844C97.294 29.524 97.166 30.104 96.91 30.584C96.654 31.064 96.306 31.432 95.866 31.688C95.434 31.936 94.938 32.06 94.378 32.06ZM94.438 31.304C94.886 31.304 95.286 31.204 95.638 31.004C95.998 30.796 96.278 30.508 96.478 30.14C96.686 29.764 96.79 29.332 96.79 28.844C96.79 28.348 96.686 27.916 96.478 27.548C96.278 27.18 95.998 26.896 95.638 26.696C95.286 26.488 94.886 26.384 94.438 26.384C93.998 26.384 93.602 26.488 93.25 26.696C92.898 26.896 92.618 27.18 92.41 27.548C92.202 27.916 92.098 28.348 92.098 28.844C92.098 29.332 92.202 29.764 92.41 30.14C92.618 30.508 92.898 30.796 93.25 31.004C93.602 31.204 93.998 31.304 94.438 31.304ZM96.814 32V30.104L96.898 28.832L96.778 27.56V23.096H97.63V32H96.814ZM105.799 32.06C105.143 32.06 104.567 31.924 104.071 31.652C103.575 31.372 103.187 30.992 102.907 30.512C102.627 30.024 102.487 29.468 102.487 28.844C102.487 28.22 102.619 27.668 102.883 27.188C103.155 26.708 103.523 26.332 103.987 26.06C104.459 25.78 104.987 25.64 105.571 25.64C106.163 25.64 106.687 25.776 107.143 26.048C107.607 26.312 107.971 26.688 108.235 27.176C108.499 27.656 108.631 28.212 108.631 28.844C108.631 28.884 108.627 28.928 108.619 28.976C108.619 29.016 108.619 29.06 108.619 29.108H103.135V28.472H108.163L107.827 28.724C107.827 28.268 107.727 27.864 107.527 27.512C107.335 27.152 107.071 26.872 106.735 26.672C106.399 26.472 106.011 26.372 105.571 26.372C105.139 26.372 104.751 26.472 104.407 26.672C104.063 26.872 103.795 27.152 103.603 27.512C103.411 27.872 103.315 28.284 103.315 28.748V28.88C103.315 29.36 103.419 29.784 103.627 30.152C103.843 30.512 104.139 30.796 104.515 31.004C104.899 31.204 105.335 31.304 105.823 31.304C106.207 31.304 106.563 31.236 106.891 31.1C107.227 30.964 107.515 30.756 107.755 30.476L108.235 31.028C107.955 31.364 107.603 31.62 107.179 31.796C106.763 31.972 106.303 32.06 105.799 32.06ZM113.485 32V25.7H114.301V27.416L114.217 27.116C114.393 26.636 114.689 26.272 115.105 26.024C115.521 25.768 116.037 25.64 116.653 25.64V26.468C116.621 26.468 116.589 26.468 116.557 26.468C116.525 26.46 116.493 26.456 116.461 26.456C115.797 26.456 115.277 26.66 114.901 27.068C114.525 27.468 114.337 28.04 114.337 28.784V32H113.485Z" fill="url(#paint4_linear_412_2)"/>
</g>
<defs>
<filter id="filter0_di_412_2" x="44.026" y="2.40002" width="83.1406" height="31.66" filterUnits="userSpaceOnUse" color-interpolation-filters="sRGB">
<feFlood flood-opacity="0" result="BackgroundImageFix"/>
<feColorMatrix in="SourceAlpha" type="matrix" values="0 0 0 0 0 0 0 0 0 0 0 0 0 0 0 0 0 0 127 0" result="hardAlpha"/>
<feOffset/>
<feGaussianBlur stdDeviation="1"/>
<feComposite in2="hardAlpha" operator="out"/>
<feColorMatrix type="matrix" values="0 0 0 0 0.937255 0 0 0 0 0.596078 0 0 0 0 0.886275 0 0 0 1 0"/>
<feBlend mode="normal" in2="BackgroundImageFix" result="effect1_dropShadow_412_2"/>
<feBlend mode="normal" in="SourceGraphic" in2="effect1_dropShadow_412_2" result="shape"/>
<feColorMatrix in="SourceAlpha" type="matrix" values="0 0 0 0 0 0 0 0 0 0 0 0 0 0 0 0 0 0 127 0" result="hardAlpha"/>
<feOffset/>
<feGaussianBlur stdDeviation="29"/>
<feComposite in2="hardAlpha" operator="arithmetic" k2="-1" k3="1"/>
<feColorMatrix type="matrix" values="0 0 0 0 1 0 0 0 0 1 0 0 0 0 1 0 0 0 0.25 0"/>
<feBlend mode="normal" in2="shape" result="effect2_innerShadow_412_2"/>
</filter>
<linearGradient id="paint0_linear_412_2" x1="17.9993" y1="12.4779" x2="17.9993" y2="33.4036" gradientUnits="userSpaceOnUse">
<stop stop-color="#DE90FF"/>
<stop offset="1" stop-color="#FFA0C8"/>
</linearGradient>
<linearGradient id="paint1_linear_412_2" x1="17.9894" y1="1.56885" x2="17.9894" y2="29.1301" gradientUnits="userSpaceOnUse">
<stop stop-color="#DE90FF"/>
<stop offset="1" stop-color="#FFA0C8"/>
</linearGradient>
<linearGradient id="paint2_linear_412_2" x1="26.145" y1="4.17004" x2="26.145" y2="10.3501" gradientUnits="userSpaceOnUse">
<stop stop-color="#DE90FF"/>
<stop offset="1" stop-color="#FFA0C8"/>
</linearGradient>
<linearGradient id="paint3_linear_412_2" x1="45" y1="5.40001" x2="131.901" y2="12.8102" gradientUnits="userSpaceOnUse">
<stop stop-color="#DE90FF"/>
<stop offset="1" stop-color="#FFA0C8"/>
</linearGradient>
<linearGradient id="paint4_linear_412_2" x1="45" y1="5.40001" x2="131.901" y2="12.8102" gradientUnits="userSpaceOnUse">
<stop stop-color="white"/>
<stop offset="1" stop-color="white"/>
</linearGradient>
<clipPath id="clip0_412_2">
<rect width="36" height="36" fill="white"/>
</clipPath>
</defs>
</svg>
