<svg width="164" height="37" viewBox="0 0 164 37" fill="none" xmlns="http://www.w3.org/2000/svg">
<g clip-path="url(#clip0_16_183)">
<path d="M30.86 21.44C31.5179 21.5209 32.1516 21.7389 32.72 22.08H32.77C33.3605 19.2883 33.1491 16.3865 32.16 13.71C32.123 13.5768 32.0587 13.4527 31.9713 13.3456C31.8839 13.2385 31.7752 13.1507 31.6522 13.0877C31.5291 13.0247 31.3943 12.988 31.2563 12.9797C31.1183 12.9714 30.9801 12.9919 30.8504 13.0397C30.7207 13.0876 30.6023 13.1618 30.5028 13.2577C30.4032 13.3536 30.3246 13.4692 30.272 13.597C30.2193 13.7248 30.1937 13.8622 30.1968 14.0004C30.1999 14.1386 30.2317 14.2747 30.29 14.4C31.1165 16.6512 31.3135 19.0851 30.86 21.44ZM26.33 29.08C24.5875 30.5337 22.4948 31.5059 20.26 31.9C20.1287 31.9111 20.0008 31.9481 19.8838 32.0086C19.7667 32.0692 19.6628 32.1522 19.5778 32.253C19.4928 32.3537 19.4285 32.4702 19.3886 32.5958C19.3487 32.7214 19.3338 32.8537 19.345 32.985C19.3562 33.1163 19.3931 33.2441 19.4537 33.3612C19.5142 33.4783 19.5973 33.5822 19.698 33.6672C19.7988 33.7522 19.9153 33.8164 20.0409 33.8564C20.1665 33.8963 20.2987 33.9111 20.43 33.9H20.61C23.2736 33.4301 25.763 32.2562 27.82 30.5V30.43C27.2318 30.0927 26.7235 29.6322 26.33 29.08ZM15.62 31.84C14.1075 31.5561 12.6558 31.0113 11.33 30.23C10.7631 29.8959 10.2186 29.5251 9.70001 29.12C9.31873 29.68 8.82064 30.1508 8.24001 30.5C8.88936 31.0478 9.58158 31.5427 10.31 31.98C11.8374 32.8797 13.5086 33.5089 15.25 33.84H15.44C15.7052 33.8639 15.9691 33.7814 16.1735 33.6107C16.3779 33.4401 16.5061 33.1952 16.53 32.93C16.5539 32.6648 16.4714 32.4009 16.3008 32.1965C16.1301 31.9921 15.8852 31.8639 15.62 31.84ZM4.56001 21.65C4.76001 21.65 4.96001 21.62 5.16001 21.56C4.68331 19.202 4.87024 16.758 5.70001 14.5C5.79151 14.2507 5.78022 13.9752 5.66864 13.7343C5.55706 13.4933 5.35431 13.3065 5.10501 13.215C4.8557 13.1235 4.58026 13.1348 4.33928 13.2464C4.09829 13.3579 3.91151 13.5607 3.82001 13.81C2.8295 16.5083 2.63512 19.4344 3.26001 22.24C3.66129 21.9792 4.09953 21.7803 4.56001 21.65Z" fill="url(#paint0_linear_16_183)"/>
<path d="M31.9 23.5C31.5428 23.2727 31.1442 23.1186 30.7271 23.0465C30.3099 22.9744 29.8827 22.9858 29.47 23.08C28.9477 23.2192 28.4672 23.4835 28.07 23.85L24.2 21.61C24.8095 20.1042 24.8657 18.4311 24.3585 16.8878C23.8514 15.3445 22.8138 14.0308 21.43 13.18L21.32 13.11C20.5723 12.6881 19.7509 12.4132 18.9 12.3V8.49998C19.6964 8.26063 20.3698 7.72335 20.78 6.99998C21.2217 6.25214 21.3508 5.36029 21.1393 4.51787C20.9278 3.67545 20.3926 2.9504 19.65 2.49998C19.2882 2.28831 18.8878 2.15098 18.4722 2.09603C18.0567 2.04108 17.6343 2.06962 17.23 2.17998C16.813 2.28627 16.4215 2.47453 16.0781 2.73379C15.7347 2.99304 15.4464 3.3181 15.23 3.68998C14.8007 4.43421 14.6785 5.31652 14.8896 6.14938C15.1006 6.98223 15.6281 7.69995 16.36 8.14998C16.5895 8.29991 16.8385 8.41767 17.1 8.49998V12.3C16.0926 12.4375 15.1304 12.8048 14.2877 13.3735C13.445 13.9423 12.7443 14.6972 12.24 15.58C11.7181 16.4822 11.409 17.4917 11.3362 18.5314C11.2634 19.5712 11.4289 20.6138 11.82 21.58L7.81997 23.87C7.67969 23.7353 7.52924 23.6116 7.36997 23.5C7.00379 23.2917 6.60007 23.1577 6.18199 23.1058C5.76391 23.0538 5.33969 23.085 4.93367 23.1974C4.52765 23.3098 4.14783 23.5013 3.81599 23.7609C3.48416 24.0204 3.20685 24.343 2.99997 24.71C2.56799 25.4506 2.44124 26.3303 2.64656 27.1628C2.85187 27.9953 3.37314 28.7151 4.09997 29.17C4.59815 29.4699 5.16846 29.6289 5.74997 29.63C6.01328 29.6318 6.27564 29.5982 6.52997 29.53C7.36136 29.3155 8.0741 28.7808 8.51254 28.0426C8.95097 27.3043 9.07947 26.4226 8.86997 25.59V25.42L12.75 23.18C13.27 23.8608 13.9106 24.4404 14.64 24.89C16.038 25.7715 17.7197 26.0864 19.342 25.7705C20.9642 25.4546 22.4049 24.5317 23.37 23.19L27.2 25.4C27.0194 26.082 27.0629 26.804 27.324 27.4594C27.5851 28.1148 28.0499 28.6689 28.65 29.04C29.3768 29.4664 30.2432 29.587 31.0588 29.3751C31.8744 29.1632 32.5726 28.6363 33 27.91C33.4167 27.174 33.5349 26.3061 33.3302 25.4854C33.1255 24.6648 32.6135 23.9541 31.9 23.5ZM8.04997 10.5C9.48261 8.80762 11.3243 7.50982 13.4 6.72998C13.199 6.05948 13.1411 5.35427 13.23 4.65998C10.6297 5.52935 8.31406 7.08808 6.52997 9.16998C6.3536 9.37154 6.26453 9.63491 6.28234 9.90215C6.30016 10.1694 6.42341 10.4186 6.62497 10.595C6.82653 10.7713 7.08991 10.8604 7.35715 10.8426C7.62438 10.8248 7.8736 10.7015 8.04997 10.5Z" fill="url(#paint1_linear_16_183)"/>
<path d="M24.67 7.72998C25.901 8.4686 27.0023 9.40439 27.93 10.5C28.0153 10.5998 28.1195 10.6818 28.2366 10.7413C28.3536 10.8009 28.4813 10.8368 28.6122 10.847C28.7431 10.8572 28.8748 10.8415 28.9997 10.8009C29.1245 10.7602 29.2402 10.6953 29.34 10.61C29.4398 10.5246 29.5218 10.4204 29.5813 10.3034C29.6409 10.1863 29.6768 10.0587 29.687 9.92776C29.6972 9.79683 29.6815 9.66517 29.6409 9.5403C29.6002 9.41543 29.5353 9.29979 29.45 9.19998C28.382 7.93295 27.1115 6.85164 25.69 5.99998C24.7577 5.45791 23.7726 5.01227 22.75 4.66998C22.8504 5.35939 22.7992 6.0624 22.6 6.72998C23.316 7.00642 24.0083 7.34086 24.67 7.72998Z" fill="url(#paint2_linear_16_183)"/>
</g>
<g filter="url(#filter0_di_16_183)">
<path d="M45.64 25.5V22.6L53.44 13.52L54.02 15.16H45.84V11.5H58.18V14.4L50.38 23.48L49.8 21.84H58.5V25.5H45.64ZM58.3505 25.5L64.4705 11.5H69.1105L75.2305 25.5H70.3505L65.8305 13.74H67.6705L63.1505 25.5H58.3505ZM61.9905 23.06L63.1905 19.66H69.6305L70.8305 23.06H61.9905ZM75.9838 25.5V11.5H80.7038V25.5H75.9838ZM87.1959 22.5L86.9359 17.32L92.2159 11.5H97.3559L91.4359 18.02L88.8159 20.7L87.1959 22.5ZM82.9759 25.5V11.5H87.6159V25.5H82.9759ZM92.1759 25.5L88.0559 20.06L91.1159 16.82L97.6359 25.5H92.1759ZM96.0458 25.5L102.166 11.5H106.806L112.926 25.5H108.046L103.526 13.74H105.366L100.846 25.5H96.0458ZM99.6858 23.06L100.886 19.66H107.326L108.526 23.06H99.6858ZM116.185 25.7C115.438 25.7 114.811 25.46 114.305 24.98C113.798 24.4867 113.545 23.86 113.545 23.1C113.545 22.3267 113.798 21.7067 114.305 21.24C114.811 20.7733 115.438 20.54 116.185 20.54C116.931 20.54 117.558 20.7733 118.065 21.24C118.571 21.7067 118.825 22.3267 118.825 23.1C118.825 23.86 118.571 24.4867 118.065 24.98C117.558 25.46 116.931 25.7 116.185 25.7ZM120.359 25.5V11.5H124.239L131.359 20.02H129.559V11.5H134.159V25.5H130.279L123.159 16.98H124.959V25.5H120.359ZM140.753 16.7H146.993V20.1H140.753V16.7ZM141.073 21.94H148.073V25.5H136.433V11.5H147.813V15.06H141.073V21.94ZM152.93 25.5V15.16H148.83V11.5H161.75V15.16H157.65V25.5H152.93Z" fill="url(#paint3_linear_16_183)"/>
</g>
<defs>
<filter id="filter0_di_16_183" x="43.64" y="9.5" width="120.11" height="18.2" filterUnits="userSpaceOnUse" color-interpolation-filters="sRGB">
<feFlood flood-opacity="0" result="BackgroundImageFix"/>
<feColorMatrix in="SourceAlpha" type="matrix" values="0 0 0 0 0 0 0 0 0 0 0 0 0 0 0 0 0 0 127 0" result="hardAlpha"/>
<feOffset/>
<feGaussianBlur stdDeviation="1"/>
<feComposite in2="hardAlpha" operator="out"/>
<feColorMatrix type="matrix" values="0 0 0 0 0.937255 0 0 0 0 0.596078 0 0 0 0 0.886275 0 0 0 1 0"/>
<feBlend mode="normal" in2="BackgroundImageFix" result="effect1_dropShadow_16_183"/>
<feBlend mode="normal" in="SourceGraphic" in2="effect1_dropShadow_16_183" result="shape"/>
<feColorMatrix in="SourceAlpha" type="matrix" values="0 0 0 0 0 0 0 0 0 0 0 0 0 0 0 0 0 0 127 0" result="hardAlpha"/>
<feOffset/>
<feGaussianBlur stdDeviation="29"/>
<feComposite in2="hardAlpha" operator="arithmetic" k2="-1" k3="1"/>
<feColorMatrix type="matrix" values="0 0 0 0 1 0 0 0 0 1 0 0 0 0 1 0 0 0 0.25 0"/>
<feBlend mode="normal" in2="shape" result="effect2_innerShadow_16_183"/>
</filter>
<linearGradient id="paint0_linear_16_183" x1="17.9993" y1="12.9779" x2="17.9993" y2="33.9036" gradientUnits="userSpaceOnUse">
<stop stop-color="#DE90FF"/>
<stop offset="1" stop-color="#FFA0C8"/>
</linearGradient>
<linearGradient id="paint1_linear_16_183" x1="17.9894" y1="2.06885" x2="17.9894" y2="29.6301" gradientUnits="userSpaceOnUse">
<stop stop-color="#DE90FF"/>
<stop offset="1" stop-color="#FFA0C8"/>
</linearGradient>
<linearGradient id="paint2_linear_16_183" x1="26.145" y1="4.66998" x2="26.145" y2="10.85" gradientUnits="userSpaceOnUse">
<stop stop-color="#DE90FF"/>
<stop offset="1" stop-color="#FFA0C8"/>
</linearGradient>
<linearGradient id="paint3_linear_16_183" x1="45" y1="10.1" x2="167.262" y2="32.6889" gradientUnits="userSpaceOnUse">
<stop stop-color="#DE90FF"/>
<stop offset="1" stop-color="#FFA0C8"/>
</linearGradient>
<clipPath id="clip0_16_183">
<rect width="36" height="36" fill="white" transform="translate(0 0.5)"/>
</clipPath>
</defs>
</svg>
