<svg width="162" height="36" viewBox="0 0 162 36" fill="none" xmlns="http://www.w3.org/2000/svg">
<g clip-path="url(#clip0_409_2)">
<path d="M30.86 20.94C31.5179 21.0209 32.1516 21.2389 32.72 21.58H32.77C33.3605 18.7883 33.1491 15.8865 32.16 13.21C32.123 13.0768 32.0587 12.9527 31.9713 12.8456C31.8839 12.7385 31.7752 12.6507 31.6522 12.5877C31.5291 12.5247 31.3943 12.488 31.2563 12.4797C31.1183 12.4714 30.9801 12.4919 30.8504 12.5397C30.7207 12.5876 30.6023 12.6618 30.5028 12.7577C30.4032 12.8536 30.3246 12.9692 30.272 13.097C30.2193 13.2248 30.1937 13.3622 30.1968 13.5004C30.1999 13.6386 30.2317 13.7747 30.29 13.9C31.1165 16.1512 31.3135 18.5851 30.86 20.94ZM26.33 28.58C24.5875 30.0337 22.4948 31.0059 20.26 31.4C20.1287 31.4111 20.0008 31.4481 19.8838 31.5086C19.7667 31.5692 19.6628 31.6522 19.5778 31.753C19.4928 31.8537 19.4285 31.9702 19.3886 32.0958C19.3487 32.2214 19.3338 32.3537 19.345 32.485C19.3562 32.6163 19.3931 32.7441 19.4537 32.8612C19.5142 32.9783 19.5973 33.0822 19.698 33.1672C19.7988 33.2522 19.9153 33.3164 20.0409 33.3564C20.1665 33.3963 20.2987 33.4111 20.43 33.4H20.61C23.2736 32.9301 25.763 31.7562 27.82 30V29.93C27.2318 29.5927 26.7235 29.1322 26.33 28.58ZM15.62 31.34C14.1075 31.0561 12.6558 30.5113 11.33 29.73C10.7631 29.3959 10.2186 29.0251 9.70001 28.62C9.31873 29.18 8.82064 29.6508 8.24001 30C8.88936 30.5478 9.58158 31.0427 10.31 31.48C11.8374 32.3797 13.5086 33.0089 15.25 33.34H15.44C15.7052 33.3639 15.9691 33.2814 16.1735 33.1107C16.3779 32.9401 16.5061 32.6952 16.53 32.43C16.5539 32.1648 16.4714 31.9009 16.3008 31.6965C16.1301 31.4921 15.8852 31.3639 15.62 31.34ZM4.56001 21.15C4.76001 21.15 4.96001 21.12 5.16001 21.06C4.68331 18.702 4.87024 16.258 5.70001 14C5.79151 13.7507 5.78022 13.4752 5.66864 13.2343C5.55706 12.9933 5.35431 12.8065 5.10501 12.715C4.8557 12.6235 4.58026 12.6348 4.33928 12.7464C4.09829 12.8579 3.91151 13.0607 3.82001 13.31C2.8295 16.0083 2.63512 18.9344 3.26001 21.74C3.66129 21.4792 4.09953 21.2803 4.56001 21.15Z" fill="white"/>
<path d="M31.9 23C31.5428 22.7727 31.1442 22.6186 30.7271 22.5465C30.3099 22.4744 29.8827 22.4858 29.47 22.58C28.9477 22.7192 28.4672 22.9835 28.07 23.35L24.2 21.11C24.8095 19.6042 24.8657 17.9311 24.3585 16.3878C23.8514 14.8445 22.8138 13.5308 21.43 12.68L21.32 12.61C20.5723 12.1881 19.7509 11.9132 18.9 11.8V7.99998C19.6964 7.76063 20.3698 7.22335 20.78 6.49998C21.2217 5.75214 21.3508 4.86029 21.1393 4.01787C20.9278 3.17545 20.3926 2.4504 19.65 1.99998C19.2882 1.78831 18.8878 1.65098 18.4722 1.59603C18.0567 1.54108 17.6343 1.56962 17.23 1.67998C16.813 1.78627 16.4215 1.97453 16.0781 2.23379C15.7347 2.49304 15.4464 2.8181 15.23 3.18998C14.8007 3.93421 14.6785 4.81652 14.8896 5.64938C15.1006 6.48223 15.6281 7.19995 16.36 7.64998C16.5895 7.79991 16.8385 7.91767 17.1 7.99998V11.8C16.0926 11.9375 15.1304 12.3048 14.2877 12.8735C13.445 13.4423 12.7443 14.1972 12.24 15.08C11.7181 15.9822 11.409 16.9917 11.3362 18.0314C11.2634 19.0712 11.4289 20.1138 11.82 21.08L7.81997 23.37C7.67969 23.2353 7.52924 23.1116 7.36997 23C7.00379 22.7917 6.60007 22.6577 6.18199 22.6058C5.76391 22.5538 5.33969 22.585 4.93367 22.6974C4.52765 22.8098 4.14783 23.0013 3.81599 23.2609C3.48416 23.5204 3.20685 23.843 2.99997 24.21C2.56799 24.9506 2.44124 25.8303 2.64656 26.6628C2.85187 27.4953 3.37314 28.2151 4.09997 28.67C4.59815 28.9699 5.16846 29.1289 5.74997 29.13C6.01328 29.1318 6.27564 29.0982 6.52997 29.03C7.36136 28.8155 8.0741 28.2808 8.51254 27.5426C8.95097 26.8043 9.07947 25.9226 8.86997 25.09V24.92L12.75 22.68C13.27 23.3608 13.9106 23.9404 14.64 24.39C16.038 25.2715 17.7197 25.5864 19.342 25.2705C20.9642 24.9546 22.4049 24.0317 23.37 22.69L27.2 24.9C27.0194 25.582 27.0629 26.304 27.324 26.9594C27.5851 27.6148 28.0499 28.1689 28.65 28.54C29.3768 28.9664 30.2432 29.087 31.0588 28.8751C31.8744 28.6632 32.5726 28.1363 33 27.41C33.4167 26.674 33.5349 25.8061 33.3302 24.9854C33.1255 24.1648 32.6135 23.4541 31.9 23ZM8.04997 9.99998C9.48261 8.30762 11.3243 7.00982 13.4 6.22998C13.199 5.55948 13.1411 4.85427 13.23 4.15998C10.6297 5.02935 8.31406 6.58808 6.52997 8.66998C6.3536 8.87154 6.26453 9.13491 6.28234 9.40215C6.30016 9.66939 6.42341 9.91861 6.62497 10.095C6.82653 10.2713 7.08991 10.3604 7.35715 10.3426C7.62438 10.3248 7.8736 10.2015 8.04997 9.99998Z" fill="white"/>
<path d="M24.67 7.22998C25.901 7.9686 27.0023 8.90439 27.93 9.99998C28.0153 10.0998 28.1195 10.1818 28.2366 10.2413C28.3536 10.3009 28.4813 10.3368 28.6122 10.347C28.7431 10.3572 28.8748 10.3415 28.9997 10.3009C29.1245 10.2602 29.2402 10.1953 29.34 10.11C29.4398 10.0246 29.5218 9.92044 29.5813 9.80339C29.6409 9.68633 29.6768 9.5587 29.687 9.42776C29.6972 9.29683 29.6815 9.16517 29.6409 9.0403C29.6002 8.91543 29.5353 8.79979 29.45 8.69998C28.382 7.43295 27.1115 6.35164 25.69 5.49998C24.7577 4.95791 23.7726 4.51227 22.75 4.16998C22.8504 4.85939 22.7992 5.5624 22.6 6.22998C23.316 6.50642 24.0083 6.84086 24.67 7.22998Z" fill="white"/>
</g>
<path d="M45.64 25V22.1L53.44 13.02L54.02 14.66H45.84V11H58.18V13.9L50.38 22.98L49.8 21.34H58.5V25H45.64ZM58.3505 25L64.4705 11H69.1105L75.2305 25H70.3505L65.8305 13.24H67.6705L63.1505 25H58.3505ZM61.9905 22.56L63.1905 19.16H69.6305L70.8305 22.56H61.9905ZM75.9838 25V11H80.7038V25H75.9838ZM87.1959 22L86.9359 16.82L92.2159 11H97.3559L91.4359 17.52L88.8159 20.2L87.1959 22ZM82.9759 25V11H87.6159V25H82.9759ZM92.1759 25L88.0559 19.56L91.1159 16.32L97.6359 25H92.1759ZM96.0458 25L102.166 11H106.806L112.926 25H108.046L103.526 13.24H105.366L100.846 25H96.0458ZM99.6858 22.56L100.886 19.16H107.326L108.526 22.56H99.6858ZM116.185 25.2C115.438 25.2 114.811 24.96 114.305 24.48C113.798 23.9867 113.545 23.36 113.545 22.6C113.545 21.8267 113.798 21.2067 114.305 20.74C114.811 20.2733 115.438 20.04 116.185 20.04C116.931 20.04 117.558 20.2733 118.065 20.74C118.571 21.2067 118.825 21.8267 118.825 22.6C118.825 23.36 118.571 23.9867 118.065 24.48C117.558 24.96 116.931 25.2 116.185 25.2ZM120.359 25V11H124.239L131.359 19.52H129.559V11H134.159V25H130.279L123.159 16.48H124.959V25H120.359ZM140.753 16.2H146.993V19.6H140.753V16.2ZM141.073 21.44H148.073V25H136.433V11H147.813V14.56H141.073V21.44ZM152.93 25V14.66H148.83V11H161.75V14.66H157.65V25H152.93Z" fill="white"/>
<defs>
<clipPath id="clip0_409_2">
<rect width="36" height="36" fill="white"/>
</clipPath>
</defs>
</svg>
