<svg width="390" height="443" viewBox="0 0 390 443" fill="none" xmlns="http://www.w3.org/2000/svg">
<path opacity="0.1" d="M220.668 230.596C207.288 241.204 190.247 246.07 173.296 244.123C156.345 242.177 140.872 233.578 130.28 220.217C119.688 206.857 114.846 189.83 116.818 172.882C118.79 155.934 127.416 140.453 140.796 129.845C154.177 119.237 171.217 114.371 188.168 116.318C205.119 118.264 220.593 126.863 231.184 140.224C236.429 146.839 240.317 154.424 242.627 162.546C244.937 170.668 245.623 179.167 244.646 187.559C243.67 195.951 241.05 204.071 236.936 211.455C232.821 218.839 227.294 225.343 220.668 230.596ZM68.9114 39.1696C31.4453 68.8715 7.29484 112.218 1.77282 159.672C-3.74921 207.127 9.80954 254.803 39.4663 292.212C123.332 398 388.4 442.172 388.4 442.172C388.4 442.172 405.864 174.017 321.998 68.229C292.342 30.82 249.016 6.74221 201.553 1.29251C154.09 -4.15719 106.377 9.46759 68.9114 39.1696Z" fill="#9710CF"/>
</svg>
