<svg width="24" height="25" viewBox="0 0 24 25" fill="none" xmlns="http://www.w3.org/2000/svg">
<g id="tabler:phone-call">
<path id="Vector" d="M15 7.5C15.5304 7.5 16.0391 7.71071 16.4142 8.08579C16.7893 8.46086 17 8.96957 17 9.5M15 3.5C16.5913 3.5 18.1174 4.13214 19.2426 5.25736C20.3679 6.38258 21 7.9087 21 9.5M5 4.5H9L11 9.5L8.5 11C9.57096 13.1715 11.3285 14.929 13.5 16L15 13.5L20 15.5V19.5C20 20.0304 19.7893 20.5391 19.4142 20.9142C19.0391 21.2893 18.5304 21.5 18 21.5C14.0993 21.263 10.4202 19.6065 7.65683 16.8432C4.8935 14.0798 3.23705 10.4007 3 6.5C3 5.96957 3.21071 5.46086 3.58579 5.08579C3.96086 4.71071 4.46957 4.5 5 4.5Z" stroke="white" stroke-width="2" stroke-linecap="round" stroke-linejoin="round"/>
</g>
</svg>
