<svg width="24" height="25" viewBox="0 0 24 25" fill="none" xmlns="http://www.w3.org/2000/svg">
<g id="material-symbols:live-tv-outline-rounded">
<path id="Vector" d="M11.05 15L15.2 12.35C15.35 12.25 15.4627 12.125 15.538 11.975C15.6127 11.825 15.65 11.6667 15.65 11.5C15.65 11.3333 15.6127 11.175 15.538 11.025C15.4627 10.875 15.35 10.75 15.2 10.65L11.05 8C10.7167 7.78333 10.375 7.76667 10.025 7.95C9.675 8.13333 9.5 8.425 9.5 8.825V14.175C9.5 14.575 9.675 14.8667 10.025 15.05C10.375 15.2333 10.7167 15.2167 11.05 15ZM9 21.5C8.71667 21.5 8.47933 21.404 8.288 21.212C8.096 21.0207 8 20.7833 8 20.5V19.5H4C3.45 19.5 2.97933 19.3043 2.588 18.913C2.196 18.521 2 18.05 2 17.5V5.5C2 4.95 2.196 4.479 2.588 4.087C2.97933 3.69567 3.45 3.5 4 3.5H20C20.55 3.5 21.021 3.69567 21.413 4.087C21.8043 4.479 22 4.95 22 5.5V17.5C22 18.05 21.8043 18.521 21.413 18.913C21.021 19.3043 20.55 19.5 20 19.5H16V20.5C16 20.7833 15.9043 21.0207 15.713 21.212C15.521 21.404 15.2833 21.5 15 21.5H9ZM4 17.5H20V5.5H4V17.5Z" fill="url(#paint0_linear_16_168)"/>
</g>
<defs>
<linearGradient id="paint0_linear_16_168" x1="2" y1="4" x2="19.9006" y2="23.8895" gradientUnits="userSpaceOnUse">
<stop stop-color="#DE90FF"/>
<stop offset="1" stop-color="#FFA0C8"/>
</linearGradient>
</defs>
</svg>
