<svg width="24" height="25" viewBox="0 0 24 25" fill="none" xmlns="http://www.w3.org/2000/svg">
<g id="mdi:web">
<path id="Vector" d="M16.36 14.1824C16.44 13.5224 16.5 12.8624 16.5 12.1824C16.5 11.5024 16.44 10.8424 16.36 10.1824H19.74C19.9 10.8224 20 11.4924 20 12.1824C20 12.8724 19.9 13.5424 19.74 14.1824M14.59 19.7424C15.19 18.6324 15.65 17.4324 15.97 16.1824H18.92C17.9512 17.8507 16.4141 19.1144 14.59 19.7424ZM14.34 14.1824H9.66C9.56 13.5224 9.5 12.8624 9.5 12.1824C9.5 11.5024 9.56 10.8324 9.66 10.1824H14.34C14.43 10.8324 14.5 11.5024 14.5 12.1824C14.5 12.8624 14.43 13.5224 14.34 14.1824ZM12 20.1424C11.17 18.9424 10.5 17.6124 10.09 16.1824H13.91C13.5 17.6124 12.83 18.9424 12 20.1424ZM8 8.18243H5.08C6.03886 6.50965 7.5748 5.24392 9.4 4.62243C8.8 5.73243 8.35 6.93243 8 8.18243ZM5.08 16.1824H8C8.35 17.4324 8.8 18.6324 9.4 19.7424C7.57862 19.1141 6.04485 17.8502 5.08 16.1824ZM4.26 14.1824C4.1 13.5424 4 12.8724 4 12.1824C4 11.4924 4.1 10.8224 4.26 10.1824H7.64C7.56 10.8424 7.5 11.5024 7.5 12.1824C7.5 12.8624 7.56 13.5224 7.64 14.1824M12 4.21243C12.83 5.41243 13.5 6.75243 13.91 8.18243H10.09C10.5 6.75243 11.17 5.41243 12 4.21243ZM18.92 8.18243H15.97C15.657 6.94389 15.1936 5.74833 14.59 4.62243C16.43 5.25243 17.96 6.52243 18.92 8.18243ZM12 2.18243C6.47 2.18243 2 6.68243 2 12.1824C2 14.8346 3.05357 17.3781 4.92893 19.2535C5.85752 20.1821 6.95991 20.9187 8.17317 21.4212C9.38642 21.9238 10.6868 22.1824 12 22.1824C14.6522 22.1824 17.1957 21.1289 19.0711 19.2535C20.9464 17.3781 22 14.8346 22 12.1824C22 10.8692 21.7413 9.56886 21.2388 8.3556C20.7362 7.14234 19.9997 6.03995 19.0711 5.11137C18.1425 4.18278 17.0401 3.44619 15.8268 2.94364C14.6136 2.44109 13.3132 2.18243 12 2.18243Z" fill="url(#paint0_linear_16_86)"/>
</g>
<defs>
<linearGradient id="paint0_linear_16_86" x1="12" y1="2.18243" x2="12" y2="22.1824" gradientUnits="userSpaceOnUse">
<stop stop-color="#DE90FF"/>
<stop offset="1" stop-color="#FFA0C8"/>
</linearGradient>
</defs>
</svg>
